<svg xmlns="http://www.w3.org/2000/svg" xmlns:xlink="http://www.w3.org/1999/xlink" width="64" height="64"><defs><clipPath id="b"><path d="M0 0h64v64H0z"/></clipPath><filter id="a" width="100%" height="100%" x="0%" y="0%" filterUnits="objectBoundingBox"><feColorMatrix in="SourceGraphic" values="0 0 0 0 1 0 0 0 0 1 0 0 0 0 1 0 0 0 1 0"/></filter><mask id="d"><g filter="url(#a)"><path d="M0 0h64v64H0z" style="fill:#000;fill-opacity:.25098;stroke:none"/></g></mask><g id="c" clip-path="url(#b)"><path d="m48.5 16.406-11.969.164c-11.601.157-12.015.203-13.562 1.418-2.614 2.047-2.887 2.938-2.918 10.856l-2.711-2.711h-5.371v7.086c0 6.531.09 7.18 1.168 8.324q.07.075.14.145l17.286 17.285c.351.011.71.023 1.07.023 15.11 0 27.363-12.254 27.363-27.363 0-1.79-.176-3.54-.504-5.23z" style="stroke:none;fill-rule:nonzero;fill:#000;fill-opacity:1"/></g></defs><path d="M58.992 31.633c0 15.11-12.25 27.363-27.363 27.363S4.266 46.742 4.266 31.633c0-15.113 12.25-27.367 27.363-27.367S58.992 16.52 58.992 31.633" style="stroke:none;fill-rule:evenodd;fill:#6cb943;fill-opacity:1"/><path d="M32 .125C14.395.125.125 14.395.125 32S14.395 63.875 32 63.875 63.875 49.605 63.875 32 49.605.125 32 .125m1.102 5.617c15.113 0 27.363 12.25 27.363 27.363 0 15.11-12.25 27.36-27.363 27.36-15.11 0-27.364-12.25-27.364-27.36 0-15.113 12.254-27.363 27.364-27.363" style="stroke:none;fill-rule:evenodd;fill:#000;fill-opacity:.0666667"/><path d="M32 .555C14.633.555.555 14.633.555 32S14.633 63.445 32 63.445 63.445 49.367 63.445 32 49.367.555 32 .555m.734 4.82c15.114 0 27.364 12.25 27.364 27.36 0 15.113-12.25 27.363-27.364 27.363-15.109 0-27.363-12.25-27.363-27.364 0-15.109 12.254-27.359 27.363-27.359" style="stroke:none;fill-rule:evenodd;fill:#000;fill-opacity:.129412"/><path d="M32 1.047C14.902 1.047 1.047 14.902 1.047 32S14.902 62.953 32 62.953 62.953 49.098 62.953 32 49.098 1.047 32 1.047m.367 3.96c15.113 0 27.363 12.25 27.363 27.36 0 15.113-12.25 27.363-27.363 27.363S5 47.48 5 32.367c0-15.11 12.254-27.36 27.367-27.36" style="stroke:none;fill-rule:evenodd;fill:#000;fill-opacity:.129412"/><path d="M253.031 7.875c-135.406 0-245.187 109.75-245.187 245.188 0 135.406 109.781 245.187 245.187 245.187 135.438 0 245.188-109.781 245.188-245.187 0-135.438-109.781-245.188-245.188-245.188m0 26.281c120.907 0 218.907 98 218.907 218.907 0 120.906-98 218.906-218.907 218.906-120.906 0-218.906-98-218.906-218.906s98-218.907 218.906-218.907Zm0 0" style="fill-rule:evenodd;fill:#fff;fill-opacity:1;stroke-width:4.904;stroke-linecap:butt;stroke-linejoin:miter;stroke:#000;stroke-opacity:.309804;stroke-miterlimit:4" transform="scale(.125)"/><use xlink:href="#c" mask="url(#d)"/><path d="M24.594 47.117c-1.242-.508-4.032-3.18-4.032-3.867 0-.254-1.406-.46-3.128-.46-2.579 0-3.336-.224-4.297-1.247-1.078-1.145-1.168-1.793-1.168-8.324v-7.082h5.37v11.277h2.688l.02-7.922c.02-8.543.238-9.398 2.918-11.508 1.55-1.214 1.965-1.257 13.566-1.414l11.965-.164v9.192h-9.668v-6.45h-9.672v13.43h-4.843l4.632 6.047c2.547 3.32 4.825 6.043 5.055 6.043.477 0 9.102-11.059 9.117-11.684.004-.222-.96-.402-2.14-.402-2.149 0-2.149 0-2.149-2.152V28.28h9.75l-.176 7.48c-.168 7.122-.238 7.551-1.52 8.915-2.527 2.707-3.589 2.949-12.73 2.914-4.668-.02-8.968-.235-9.562-.473" style="stroke:none;fill-rule:nonzero;fill:#fff;fill-opacity:1"/></svg>