<svg xmlns="http://www.w3.org/2000/svg" width="128" height="128" viewBox="0 0 1024 1024"><path d="m0 0 12.907-.005q17.314-.006 34.628 0c12.15.003 24.301 0 36.452-.001Q116.505-.01 149.023 0q29.385.006 58.772-.001 34.3-.008 68.6-.004 18.093.002 36.188-.002 17-.003 34 .005 6.204.002 12.409-.001c76.44-.038 76.44-.038 89.12 3.132l5.918 1.418c49.975 12.165 93.82 35.573 120.082 81.582l2.438 4.27c15.45 28.144 21.736 58.178 25.562 89.73l.513 3.78c1.7 14.728 1.635 29.664 1.62 44.471l.008 5.508q.007 9.039.004 18.078l.01 13.04q.014 17.644.012 35.288.002 11.038.006 22.075.014 36.563.012 73.124v7.949q.001 31.899.024 63.799.02 32.835.02 65.67-.002 18.403.013 36.805.014 17.31.003 34.621-.002 6.332.007 12.663c.028 20.808.007 41.42-2.252 62.13l-.439 4.123c-10.64 91.978-80.54 174.088-179.498 171.814-6.91-.987-6.91-.987-8.063 2.062v-2l-5 1c-4.884.074-9.753.092-14.637.063l-4.336-.012q-6.857-.019-13.714-.05-9.037-.04-18.075-.063l-4.23-.025c-6.18-.393-6.18-.393-12.008 1.087q-4.5-.491-9-1a421 421 0 0 0-10.937-.125l-5.59-.007c-4.178-.19-4.178-.19-6.473 1.132v-2l-3 1c-5.151.1-10.286.14-15.437.125l-4.28.012c-6.487-.006-12.786-.182-19.256-.77-5.023-1.145-5.023-1.145-6.027 1.633l-2-1a629 629 0 0 0-13.937-.062l-3.944.014q-5.06.02-10.119.048h-3l-3.836.036-4.539.027-4.523.035c-4.102-.098-4.102-.098-9.102-1.098l-1 2v-2c-4.004.278-8.004.624-12 1q-5.746.13-11.494.134l-6.803.013-7.378-.001-7.839.01q-10.615.012-21.231.012-6.648.001-13.296.005-23.237.014-46.475.013-21.585.001-43.168.025-18.588.02-37.176.018-11.076-.001-22.151.013-10.437.014-20.872.003c-3.731-.002-7.462.007-11.193.015-108.753-.2-191.198-61.965-203.924-172.26l-2-2c-.193-2.667-.25-5.345-.249-8.02l-.014-5.267.016-5.852-.007-6.166c-.006-6.873.003-13.747.011-20.62q0-7.358-.006-14.716-.006-17.96.01-35.919c.01-13.927.01-27.855.01-41.782q.001-37.26.023-74.522.021-36.201.02-72.401v-9.001q0-41.15.015-82.299.004-14.581.004-29.162.002-19.605.017-39.208.005-7.22.004-14.44 0-9.805.012-19.612l-.004-5.859.01-5.259c0-1.511 0-3.022.002-4.58.126-3.315.126-3.315 1.126-4.315.452-3.495.86-6.997 1.25-10.5 9.088-73.527 58.763-167.5 145.75-167.5l1-2C-97.486.73-82.64.902-68.068.575l5.643-.128C-41.616.012-20.812-.01 0 0" style="fill:#2281f7" transform="translate(340.888 93.87)"/><path d="m0 0 4.5 3.688c17.979 17.23 34.879 45.474 34.365 71.034 3.554 10.451 11.46 7.842 21.377 7.442l5.892-.077c6.25-.093 12.493-.274 18.741-.462q9.316-.201 18.634-.355 5.808-.103 11.613-.276c26.019-.619 39.762 7.872 51.253 30.819l1.902 3.716c4.75 9.33 5.965 15.736 6.308 26.082l.154 4.312q.252 7.162.495 14.323l.359 10.137q.384 10.852.761 21.706a60487 60487 0 0 0 2.025 57.13l.207 5.796c1.223 34.209 2.544 68.413 3.945 102.615l.467 11.412q.592 14.494 1.187 28.99c.833 20.332 1.647 40.665 2.43 61l.39 9.966c2.142 54.362-4.481 100.177-68.958 100.142l-5.197.01q-8.625.01-17.252.011l-12.364.015q-16.797.019-33.595.024l-20.981.012a146110 146110 0 0 1-76.958.029q-30.348.007-60.697.045-31.17.035-62.34.037-17.496 0-34.993.025-16.45.023-32.902.01-6.04-.002-12.08.013c-5.494.013-10.987.007-16.48-.004l-4.837.025c-40.86-.182-60.845-30.466-60.578-68.513l.02-5.364c.109-16.83.635-33.638 1.298-50.455.21-5.334.41-10.669.61-16.004q.421-11.32.851-22.639c.702-18.617 1.348-37.236 1.99-55.854l.19-5.463c.971-28.046 1.842-56.095 2.602-84.149.348-12.74.782-25.465 1.427-38.194.359-7.79.498-15.585.656-23.382q.135-5.333.274-10.664c.158-6.097.297-12.193.4-18.292.115-6.808.28-13.613.452-20.419l.073-6.452c.389-13.314 2.591-23.058 9.364-34.548l2.116-3.696c10.376-17.49 21.631-24.731 42.4-24.632l6.678.017 7.056.061 7.235-.002c11.261.027 22.438.228 33.671 1.049l5.468.349q5.046.346 10.072.904c13.983.918 13.206-5.38 13.304-17.05C-165.971-17.388-67.448-57.556 0 0" style="fill:#f1f2f4" transform="translate(585 238)"/><path d="m0 0 4.5 3.688C35.511 33.407 42.042 73.72 42.238 114.836l.025 4.971q.02 5.16.032 10.321.017 5.263.062 10.526c.042 5.102.059 10.204.069 15.307l.053 4.729C42.429 185.64 16.122 203.926 7 172c-.21-2.603-.33-5.214-.379-7.824l-.101-4.655-.082-4.994-.112-5.183q-.173-8.202-.326-16.406-.206-10.769-.437-21.536l-.083-4.95C3.337 6.588-118.236-28.552-149 76l-2 6c4.795.577 9.101.678 13.91.57l4.55-.031q4.924-.04 9.849-.119c5.183-.08 10.366-.123 15.55-.156 12.88-.089 25.757-.238 38.636-.395 10.864-.131 21.727-.235 32.591-.3 5.128-.041 10.255-.124 15.383-.208q4.68-.034 9.363-.06l4.373-.105C3 81.203 3 81.203 3 89c-4.576.72-8.45.892-13.048.81l-4.202.009c-4.62 0-9.236-.05-13.855-.1q-4.792-.015-9.583-.023c-8.437-.021-16.873-.085-25.31-.157-6.885-.052-13.771-.074-20.657-.094a8234 8234 0 0 1-42.65-.22l-3.998-.023c-5.058-.048-9.724-.207-14.697-1.202l-5 1v-5c-.908 4.538-1.172 8.436-1.25 13.044l-.091 4.946-.089 5.338-.222 11.176a7148 7148 0 0 0-.322 17.63c-.098 5.67-.213 11.338-.33 17.007l-.077 5.313c-.469 21.075-25.495 49.125-34.85 16.216-.749-4.548-1.042-8.783-1.075-13.389l-.049-5.102-.016-5.464c-.01-1.884-.018-3.767-.027-5.708q-.022-5.983-.028-11.965c-.011-6.03-.06-12.06-.111-18.09-.16-37.989 4.53-73.333 30.537-102.952l4.188-5C-112.648-35.77-45.056-38.448 0 0" style="fill:#f6f7f8" transform="translate(585 238)"/><path d="m0 0 .223 10.59c.113 5.543.223 11.086.321 16.63.098 5.364.213 10.728.331 16.093l.076 5.01c.501 21.265 25.451 46.507 33.62 13.833.084-2.904.107-5.81.097-8.716l-.01-5.459-.025-5.903-.012-6.036q-.019-9.568-.05-19.136-.04-12.6-.063-25.203l-.025-5.927-.01-5.422-.016-4.808c.113-3.39.113-3.39 1.113-3.39v6c5.5.417 5.5.417 11 0 0 1 0 1-4.992.098-8.647 1.558-5.757 9.132-5.133 16.34q.293 4.68.575 9.363l.317 4.713c.424 8.153.016 16.278-.317 24.432.66 6.07 2.64 8.475 6.55 13.054 14.188 32.855-21.992 58.567-48 33-8.932-13.399-7.932-26.585 2-39 .418-4.69.608-9.14.602-13.832l.026-4.081q.016-4.263.004-8.526c-.007-4.375.04-8.747.091-13.121q.007-4.136.004-8.272l.056-3.996c.778-8.258.778-8.258-6.783-9.172 0-1 0-1 5-1 0-10.67-5.46-7.838-14.2-7.525l-4.571.08q-4.936.09-9.871.225c-5.191.134-10.38.218-15.573.287a3971 3971 0 0 0-44.29.831c-9.013.219-18.024.357-27.038.443q-5.18.073-10.36.243c-34.494 1.109-34.494 1.109-24.097-18.584q1.385-3.652 2.75-7.312C-103.27-150.711-1.5-85.082 0 0" style="fill:#2277ea" transform="translate(591.43 348.844)"/><path d="M0 0c2.167 1.5 2.167 1.5 3-1l5 1c4.38.114 8.76.167 13.14.19l4.052.025q4.356.025 8.71.045 6.89.032 13.78.077Q62.31.425 76.937.5q16.944.089 33.887.192 6.792.038 13.584.068l8.322.05 7.343.039C154.462 1.216 152.982 6.205 153 19l1.192 4.651c3.706 20.47-14.986 16.514-29.867 15.87-5.207-.22-10.403-.323-15.614-.393-12.934-.195-25.861-.584-38.79-.995-10.913-.342-21.82-.6-32.738-.733-5.152-.099-10.29-.327-15.438-.558C-.819 36.275-15.174 47.382 3 69c15.107 31.406-23.177 60.104-48.062 33.688C-53.905 88.577-52.092 76.638-43 63c1.074-5.53 1.107-10.946 1.063-16.566l-.024-4.913-.078-10.085c-.037-7.748.054-15.367.727-23.088C-39.97 1.808-39.97 1.808-44 1h3v-5c2.187 0 1.165 6.446 1.174 7.752l.04 5.13.032 5.614.1 11.635q.071 9.223.13 18.447c.04 5.91.092 11.82.145 17.73l.026 5.56.05 5.216.031 4.569C-37.815 100.95-11.237 110.183-6 84c.138-2.695.225-5.393.281-8.092l.112-4.975.107-5.367.123-5.518q.194-8.743.377-17.485.244-11.498.5-22.997l.107-5.36.112-4.985.092-4.382C-3.931-.408-3.268-9.803 0 0" style="fill:#c9d1d9" transform="translate(437 326)"/><path d="m0 0 2.799 2.762c21.28 21.233 11.937 32.674-6.924 51.488l-3.932 3.98-3.814 3.817-3.455 3.464c-17.27 15.356-28.573.119-41.549-12.886l-4.467-4.418-4.263-4.262-3.9-3.89c-15.668-17.501 3.663-31.58 15.88-43.805l3.22-3.258c1.549-1.55 1.549-1.55 3.128-3.133l2.816-2.829C-26.376-29.47-13.497-13.488 0 0" style="fill:#1969d6" transform="translate(619.688 574.5)"/><path d="M0 0c2.728 3.323 2.728 3.323 6.563 6.5C21.839 19.925 23.01 31.32 8.508 45.8l-4.254 4.257-4.441 4.38-4.418 4.44c-19.515 19.398-30.32 15.892-47.895-4.44-4.69-5.306-9.727-10.201-14.8-15.14-12.502-13.166-.808-25.99 9.425-35.86L-55.021.64c2.562-2.512 5.135-5.014 7.709-7.514l5-5C-25.674-27.001-12.584-15.645 0 0" style="fill:#196ad8" transform="translate(459.313 573.875)"/><path d="m0 0 3.969 3.953 4.078 4.125 4.125 4.078 3.953 3.969 3.59 3.604c11.558 13.5 6.555 23.669-4.895 35.001l-4.718 4.694-4.93 4.842-4.953 4.923c-19.662 19.475-27.796 12.12-46.047-6.173l-4.297-4.248-4.117-4.116L-58 50.905c-12.138-13.548-7.09-24.056 4.636-35.815l3.97-3.983 4.127-4.091c1.358-1.37 2.716-2.74 4.116-4.15l3.974-3.964 3.617-3.606C-21.253-15.587-10.297-10.258 0 0" style="fill:#1a6ad8" transform="translate(530.203 485.672)"/><path d="M0 0c1.275 1.25 2.55 2.5 3.863 3.79L7.57 7.483l3.376 3.351c10.437 12.169 7.254 21.462-3.407 32.15L3.125 47.41-1.5 52l-4.602 4.637-4.421 4.41-4.053 4.042C-30.166 78.975-43.282 59.298-54 48.625l-3.742-3.68-3.563-3.547c-1.07-1.06-2.14-2.12-3.241-3.213-9.787-11.14-3.238-22.787 5.726-31.736l3.707-3.709 3.863-3.802 3.84-3.862C-28.16-24.042-17.353-17.336 0 0" style="fill:#1867d3" transform="translate(537.125 653.75)"/><path d="M0 0c1.505 8.83 1.272 17.91 1.43 26.844l.222 10.59q.172 8.314.322 16.629c.098 5.365.213 10.729.33 16.093l.077 5.01C2.882 96.432 27.83 121.673 36 89c.085-2.904.107-5.81.098-8.716l-.01-5.46-.026-5.902-.011-6.036Q36.032 53.318 36 43.75q-.038-12.601-.062-25.203l-.026-5.928-.01-5.42-.016-4.81C36-1 36-1 37-1v6c5.5.417 5.5.417 11 0 0 1 0 1-4.992.098-8.647 1.558-5.757 9.132-5.133 16.34q.294 4.68.574 9.363l.318 4.713c.423 8.153.016 16.278-.318 24.431C39.111 66.015 41.09 68.42 45 73c14.187 32.855-21.993 58.567-48 33-8.933-13.399-7.932-26.585 2-39 .418-4.69.608-9.14.602-13.832l.026-4.081q.017-4.263.003-8.526c-.006-4.375.041-8.747.092-13.122q.007-4.135.004-8.271l.055-3.996C.562 6.914.562 6.914-7 6c0-1 0-1 5-1 0-7 0-7 2-5" style="fill:#265eba" transform="translate(590 322)"/><path d="M0 0c.117 2.582.157 5.167.174 7.752l.04 5.13.032 5.614.1 11.635q.071 9.223.13 18.447c.04 5.91.092 11.82.145 17.73l.026 5.56.05 5.216.031 4.569C2.185 104.95 28.763 114.183 34 88c.154-6.471.254-12.941.328-19.414 1.743-11.895 12.597 13.573 13.047 18.602-2.722 34.926-50 41.28-58.375 5.812-1.007-10.07 2.485-17.727 8-26 1.074-5.53 1.107-10.946 1.063-16.566l-.024-4.913-.078-10.085c-.037-7.748.054-15.367.727-23.088C.03 5.808.03 5.808-4 5h3c0-5 0-5 1-5" style="fill:#1f5abd" transform="translate(397 322)"/><path d="M0 0c0 7 0 7-1 7 0-7 0-7 1-7" style="fill:#75d2ff" transform="translate(81 269)"/><path d="M0 0c0 1 0 1-6 1 0-1 0-1 6-1" style="fill:#e9ffff" transform="translate(717 93)"/><path d="M0 0c0 1 0 1-6 1 0-1 0-1 6-1" style="fill:#d4ffff" transform="translate(701 93)"/><path d="M0 0c0 1 0 1-6 1 0-1 0-1 6-1" style="fill:#b8f0ff" transform="translate(525 93)"/><path d="m0 0 4 1Z" style="fill:#bfbfff" transform="translate(788 947)"/><path d="m0 0 1 4Z" style="fill:#d4e9ff" transform="translate(81 781)"/><path d="m0 0 1 4Z" style="fill:#81d0ff" transform="translate(88 224)"/><path d="m0 0-3-1c2-1 2-1 3 1" style="fill:#a4d9ff" transform="translate(797 98)"/><path d="m0 0 4 1Z" style="fill:#bfffff" transform="translate(529 93)"/><path d="m0 0 3 1Z" style="fill:#d4d4ff" transform="translate(720 951)"/><path d="m0 0 3 1Z" style="fill:#d4d4ff" transform="translate(249 950)"/><path d="M0 0h-2c0-2 0-2 2 0" style="fill:#d4d4ff" transform="translate(98 196)"/><path d="m0 0 3 1Z" style="fill:#86cdff" transform="translate(177 112)"/><path d="m0 0 3 1Z" style="fill:#9be2ff" transform="translate(829 107)"/><path d="m0 0 3 1Z" style="fill:#a9ffff" transform="translate(820 104)"/><path d="m0 0-1 2c-1-2-1-2 1-2" style="fill:#71e2ff" transform="translate(808 99)"/><path d="m0 0 3 1Z" style="fill:#c6e2ff" transform="translate(747 93)"/><path d="m0 0 3 1Z" style="fill:#fff" transform="translate(743 93)"/><path d="m0 0 3 1Z" style="fill:#fff" transform="translate(671 93)"/><path d="m0 0 3 1Z" style="fill:#fff" transform="translate(607 93)"/><path d="m0 0 3 1Z" style="fill:#63c6ff" transform="translate(515 93)"/><path d="m0 0 3 1Z" style="fill:#fff" transform="translate(507 93)"/><path d="m0 0 3 1Z" style="fill:#d4ffff" transform="translate(411 93)"/><path d="m0 0 3 1Z" style="fill:#c6e2ff" transform="translate(387 93)"/><path d="m0 0 3 1Z" style="fill:#fff" transform="translate(261 93)"/><path d="m0 0 2 1Z" style="fill:#fff" transform="translate(752 951)"/><path d="m0 0 2 1Z" style="fill:#7f7fff" transform="translate(744 951)"/><path d="m0 0 2 1Z" style="fill:#fff" transform="translate(664 951)"/><path d="m0 0 2 1Z" style="fill:#fff" transform="translate(632 951)"/><path d="m0 0 2 1Z" style="fill:#fff" transform="translate(624 951)"/><path d="m0 0 2 1Z" style="fill:#7f7fff" transform="translate(544 951)"/><path d="m0 0 2 1Z" style="fill:#6a94ff" transform="translate(536 951)"/><path d="m0 0 2 1Z" style="fill:#fff" transform="translate(520 951)"/><path d="m0 0 2 1Z" style="fill:#fff" transform="translate(480 951)"/><path d="m0 0 2 1Z" style="fill:#bfbfff" transform="translate(456 951)"/><path d="m0 0 2 1Z" style="fill:#bfbfff" transform="translate(416 951)"/><path d="m0 0 2 1Z" style="fill:#fff" transform="translate(408 951)"/><path d="m0 0 2 1Z" style="fill:#bfbfff" transform="translate(400 951)"/><path d="m0 0 2 1Z" style="fill:#fff" transform="translate(384 951)"/><path d="m0 0 2 1Z" style="fill:#bfbfff" transform="translate(376 951)"/><path d="m0 0 2 1Z" style="fill:#fff" transform="translate(328 951)"/><path d="m0 0 2 1Z" style="fill:#bfbfff" transform="translate(280 951)"/><path d="m0 0 2 1Z" style="fill:#bfbfff" transform="translate(272 951)"/><path d="m0 0 2 1Z" style="fill:#aad4ff" transform="translate(760 950)"/><path d="m0 0 2 1Z" style="fill:#bfbfff" transform="translate(776 949)"/><path d="m0 0 2 1Z" style="fill:#bfbfff" transform="translate(234 947)"/><path d="m0 0 2 1Z" style="fill:#aad4ff" transform="translate(216 943)"/><path d="m0 0 2 1Z" style="fill:#aad4ff" transform="translate(208 941)"/><path d="m0 0 2 1Z" style="fill:#5f7fff" transform="translate(192 935)"/><path d="m0 0 2 1Z" style="fill:#fff" transform="translate(91 830)"/><path d="m0 0 2 1Z" style="fill:#bfbfff" transform="translate(149 129)"/><path d="m0 0 2 1Z" style="fill:#9fdfff" transform="translate(198 104)"/><path d="m0 0 2 1Z" style="fill:#bfffff" transform="translate(790 96)"/><path d="m0 0 2 1Z" style="fill:#59ccff" transform="translate(229 96)"/><path d="m0 0 2 1Z" style="fill:#fff" transform="translate(752 93)"/><path d="m0 0 2 1Z" style="fill:#fff" transform="translate(727 93)"/><path d="m0 0 2 1Z" style="fill:#fff" transform="translate(722 93)"/><path d="m0 0 2 1Z" style="fill:#bfffff" transform="translate(691 93)"/><path d="m0 0 2 1Z" style="fill:#fff" transform="translate(659 93)"/><path d="m0 0 2 1Z" style="fill:#bfffff" transform="translate(651 93)"/><path d="m0 0 2 1Z" style="fill:#fff" transform="translate(647 93)"/><path d="m0 0 2 1Z" style="fill:#fff" transform="translate(639 93)"/><path d="m0 0 2 1Z" style="fill:#fff" transform="translate(623 93)"/><path d="m0 0 2 1Z" style="fill:#bfffff" transform="translate(611 93)"/><path d="m0 0 2 1Z" style="fill:#bfffff" transform="translate(603 93)"/><path d="m0 0 2 1Z" style="fill:#bfffff" transform="translate(599 93)"/><path d="m0 0 2 1Z" style="fill:#bfffff" transform="translate(591 93)"/><path d="m0 0 2 1Z" style="fill:#fff" transform="translate(582 93)"/><path d="m0 0 2 1Z" style="fill:#bfffff" transform="translate(563 93)"/><path d="m0 0 2 1Z" style="fill:#bfffff" transform="translate(555 93)"/><path d="m0 0 2 1Z" style="fill:#aad4ff" transform="translate(539 93)"/><path d="m0 0 2 1Z" style="fill:#bfffff" transform="translate(535 93)"/><path d="m0 0 2 1Z" style="fill:#5af" transform="translate(483 93)"/><path d="m0 0 2 1Z" style="fill:#fff" transform="translate(479 93)"/><path d="m0 0 2 1Z" style="fill:#aad4ff" transform="translate(475 93)"/><path d="m0 0 2 1Z" style="fill:#bfffff" transform="translate(471 93)"/><path d="m0 0 2 1Z" style="fill:#bfffff" transform="translate(458 93)"/><path d="m0 0 2 1Z" style="fill:#bfffff" transform="translate(455 93)"/><path d="m0 0 2 1Z" style="fill:#fff" transform="translate(431 93)"/><path d="m0 0 2 1Z" style="fill:#fff" transform="translate(423 93)"/><path d="m0 0 2 1Z" style="fill:#bfffff" transform="translate(419 93)"/><path d="m0 0 2 1Z" style="fill:#bfffff" transform="translate(403 93)"/><path d="m0 0 2 1Z" style="fill:#fff" transform="translate(383 93)"/><path d="m0 0 2 1Z" style="fill:#7fffff" transform="translate(379 93)"/><path d="m0 0 2 1Z" style="fill:#fff" transform="translate(375 93)"/><path d="m0 0 2 1Z" style="fill:#fff" transform="translate(363 93)"/><path d="m0 0 2 1Z" style="fill:#bfffff" transform="translate(359 93)"/><path d="m0 0 2 1Z" style="fill:#bfffff" transform="translate(354 93)"/><path d="m0 0 2 1Z" style="fill:#fff" transform="translate(347 93)"/><path d="m0 0 2 1Z" style="fill:#bfffff" transform="translate(331 93)"/><path d="m0 0 2 1Z" style="fill:#bfffff" transform="translate(307 93)"/><path d="m0 0 2 1Z" style="fill:#fff" transform="translate(267 93)"/></svg>
