<?xml version="1.0" encoding="UTF-8" standalone="no"?>
<svg
   width="128"
   height="128"
   viewBox="0 0 1024 1024"
   version="1.1"
   id="svg103"
   sodipodi:docname="org.sabamdarif.termux.appstore.svg"
   inkscape:version="1.4.3 (0d15f75042, 2025-12-25)"
   xmlns:inkscape="http://www.inkscape.org/namespaces/inkscape"
   xmlns:sodipodi="http://sodipodi.sourceforge.net/DTD/sodipodi-0.dtd"
   xmlns="http://www.w3.org/2000/svg"
   xmlns:svg="http://www.w3.org/2000/svg">
  <defs
     id="defs103" />
  <sodipodi:namedview
     id="namedview103"
     pagecolor="#ffffff"
     bordercolor="#000000"
     borderopacity="0.25"
     inkscape:showpageshadow="2"
     inkscape:pageopacity="0.0"
     inkscape:pagecheckerboard="0"
     inkscape:deskcolor="#d1d1d1"
     inkscape:zoom="6.8195101"
     inkscape:cx="85.63665"
     inkscape:cy="62.46783"
     inkscape:window-width="1920"
     inkscape:window-height="999"
     inkscape:window-x="0"
     inkscape:window-y="0"
     inkscape:window-maximized="1"
     inkscape:current-layer="svg103" />
  <path
     d="m0 0 12.907-.005q17.314-.006 34.628 0c12.15.003 24.301 0 36.452-.001Q116.505-.01 149.023 0q29.385.006 58.772-.001 34.3-.008 68.6-.004 18.093.002 36.188-.002 17-.003 34 .005 6.204.002 12.409-.001c76.44-.038 76.44-.038 89.12 3.132l5.918 1.418c49.975 12.165 93.82 35.573 120.082 81.582l2.438 4.27c15.45 28.144 21.736 58.178 25.562 89.73l.513 3.78c1.7 14.728 1.635 29.664 1.62 44.471l.008 5.508q.007 9.039.004 18.078l.01 13.04q.014 17.644.012 35.288.002 11.038.006 22.075.014 36.563.012 73.124v7.949q.001 31.899.024 63.799.02 32.835.02 65.67-.002 18.403.013 36.805.014 17.31.003 34.621-.002 6.332.007 12.663c.028 20.808.007 41.42-2.252 62.13l-.439 4.123c-10.64 91.978-80.54 174.088-179.498 171.814-6.91-.987-6.91-.987-8.063 2.062v-2l-5 1c-4.884.074-9.753.092-14.637.063l-4.336-.012q-6.857-.019-13.714-.05-9.037-.04-18.075-.063l-4.23-.025c-6.18-.393-6.18-.393-12.008 1.087q-4.5-.491-9-1a421 421 0 0 0-10.937-.125l-5.59-.007c-4.178-.19-4.178-.19-6.473 1.132v-2l-3 1c-5.151.1-10.286.14-15.437.125l-4.28.012c-6.487-.006-12.786-.182-19.256-.77-5.023-1.145-5.023-1.145-6.027 1.633l-2-1a629 629 0 0 0-13.937-.062l-3.944.014q-5.06.02-10.119.048h-3l-3.836.036-4.539.027-4.523.035c-4.102-.098-4.102-.098-9.102-1.098l-1 2v-2c-4.004.278-8.004.624-12 1q-5.746.13-11.494.134l-6.803.013-7.378-.001-7.839.01q-10.615.012-21.231.012-6.648.001-13.296.005-23.237.014-46.475.013-21.585.001-43.168.025-18.588.02-37.176.018-11.076-.001-22.151.013-10.437.014-20.872.003c-3.731-.002-7.462.007-11.193.015-108.753-.2-191.198-61.965-203.924-172.26l-2-2c-.193-2.667-.25-5.345-.249-8.02l-.014-5.267.016-5.852-.007-6.166c-.006-6.873.003-13.747.011-20.62q0-7.358-.006-14.716-.006-17.96.01-35.919c.01-13.927.01-27.855.01-41.782q.001-37.26.023-74.522.021-36.201.02-72.401v-9.001q0-41.15.015-82.299.004-14.581.004-29.162.002-19.605.017-39.208.005-7.22.004-14.44 0-9.805.012-19.612l-.004-5.859.01-5.259c0-1.511 0-3.022.002-4.58.126-3.315.126-3.315 1.126-4.315.452-3.495.86-6.997 1.25-10.5 9.088-73.527 58.763-167.5 145.75-167.5l1-2C-97.486.73-82.64.902-68.068.575l5.643-.128C-41.616.012-20.812-.01 0 0"
     style="fill:#2281f7"
     transform="translate(340.888 93.87)"
     id="path1" />
  <path
     d="m0 0 4.5 3.688c17.979 17.23 34.879 45.474 34.365 71.034 3.554 10.451 11.46 7.842 21.377 7.442l5.892-.077c6.25-.093 12.493-.274 18.741-.462q9.316-.201 18.634-.355 5.808-.103 11.613-.276c26.019-.619 39.762 7.872 51.253 30.819l1.902 3.716c4.75 9.33 5.965 15.736 6.308 26.082l.154 4.312q.252 7.162.495 14.323l.359 10.137q.384 10.852.761 21.706a60487 60487 0 0 0 2.025 57.13l.207 5.796c1.223 34.209 2.544 68.413 3.945 102.615l.467 11.412q.592 14.494 1.187 28.99c.833 20.332 1.647 40.665 2.43 61l.39 9.966c2.142 54.362-4.481 100.177-68.958 100.142l-5.197.01q-8.625.01-17.252.011l-12.364.015q-16.797.019-33.595.024l-20.981.012a146110 146110 0 0 1-76.958.029q-30.348.007-60.697.045-31.17.035-62.34.037-17.496 0-34.993.025-16.45.023-32.902.01-6.04-.002-12.08.013c-5.494.013-10.987.007-16.48-.004l-4.837.025c-40.86-.182-60.845-30.466-60.578-68.513l.02-5.364c.109-16.83.635-33.638 1.298-50.455.21-5.334.41-10.669.61-16.004q.421-11.32.851-22.639c.702-18.617 1.348-37.236 1.99-55.854l.19-5.463c.971-28.046 1.842-56.095 2.602-84.149.348-12.74.782-25.465 1.427-38.194.359-7.79.498-15.585.656-23.382q.135-5.333.274-10.664c.158-6.097.297-12.193.4-18.292.115-6.808.28-13.613.452-20.419l.073-6.452c.389-13.314 2.591-23.058 9.364-34.548l2.116-3.696c10.376-17.49 21.631-24.731 42.4-24.632l6.678.017 7.056.061 7.235-.002c11.261.027 22.438.228 33.671 1.049l5.468.349q5.046.346 10.072.904c13.983.918 13.206-5.38 13.304-17.05C-165.971-17.388-67.448-57.556 0 0"
     style="fill:#f1f2f4"
     id="path2"
     transform="translate(585 238)" />
  <path
     d="m0 0 .223 10.59c.113 5.543.223 11.086.321 16.63.098 5.364.213 10.728.331 16.093l.076 5.01c.501 21.265 25.451 46.507 33.62 13.833.084-2.904.107-5.81.097-8.716l-.01-5.459-.025-5.903-.012-6.036q-.019-9.568-.05-19.136-.04-12.6-.063-25.203l-.025-5.927-.01-5.422-.016-4.808c.113-3.39.113-3.39 1.113-3.39v6c5.5.417 5.5.417 11 0 0 1 0 1-4.992.098-8.647 1.558-5.757 9.132-5.133 16.34q.293 4.68.575 9.363l.317 4.713c.424 8.153.016 16.278-.317 24.432.66 6.07 2.64 8.475 6.55 13.054 14.188 32.855-21.992 58.567-48 33-8.932-13.399-7.932-26.585 2-39 .418-4.69.608-9.14.602-13.832l.026-4.081q.016-4.263.004-8.526c-.007-4.375.04-8.747.091-13.121q.007-4.136.004-8.272l.056-3.996c.778-8.258.778-8.258-6.783-9.172 0-1 0-1 5-1 0-10.67-5.46-7.838-14.2-7.525l-4.571.08q-4.936.09-9.871.225c-5.191.134-10.38.218-15.573.287a3971 3971 0 0 0-44.29.831c-9.013.219-18.024.357-27.038.443q-5.18.073-10.36.243c-34.494 1.109-34.494 1.109-24.097-18.584q1.385-3.652 2.75-7.312C-103.27-150.711-1.5-85.082 0 0"
     style="fill:#2277ea"
     id="path4"
     transform="translate(591.43 348.844)" />
  <path
     d="m0 0 2.799 2.762c21.28 21.233 11.937 32.674-6.924 51.488l-3.932 3.98-3.814 3.817-3.455 3.464c-17.27 15.356-28.573.119-41.549-12.886l-4.467-4.418-4.263-4.262-3.9-3.89c-15.668-17.501 3.663-31.58 15.88-43.805l3.22-3.258c1.549-1.55 1.549-1.55 3.128-3.133l2.816-2.829C-26.376-29.47-13.497-13.488 0 0"
     style="fill:#1969d6"
     transform="translate(619.688 574.5)"
     id="path6" />
  <path
     d="M0 0c2.728 3.323 2.728 3.323 6.563 6.5C21.839 19.925 23.01 31.32 8.508 45.8l-4.254 4.257-4.441 4.38-4.418 4.44c-19.515 19.398-30.32 15.892-47.895-4.44-4.69-5.306-9.727-10.201-14.8-15.14-12.502-13.166-.808-25.99 9.425-35.86L-55.021.64c2.562-2.512 5.135-5.014 7.709-7.514l5-5C-25.674-27.001-12.584-15.645 0 0"
     style="fill:#196ad8"
     transform="translate(459.313 573.875)"
     id="path7" />
  <path
     d="m0 0 3.969 3.953 4.078 4.125 4.125 4.078 3.953 3.969 3.59 3.604c11.558 13.5 6.555 23.669-4.895 35.001l-4.718 4.694-4.93 4.842-4.953 4.923c-19.662 19.475-27.796 12.12-46.047-6.173l-4.297-4.248-4.117-4.116L-58 50.905c-12.138-13.548-7.09-24.056 4.636-35.815l3.97-3.983 4.127-4.091c1.358-1.37 2.716-2.74 4.116-4.15l3.974-3.964 3.617-3.606C-21.253-15.587-10.297-10.258 0 0"
     style="fill:#1a6ad8"
     id="path8"
     transform="translate(530.203 485.672)" />
  <path
     d="M0 0c1.275 1.25 2.55 2.5 3.863 3.79L7.57 7.483l3.376 3.351c10.437 12.169 7.254 21.462-3.407 32.15L3.125 47.41-1.5 52l-4.602 4.637-4.421 4.41-4.053 4.042C-30.166 78.975-43.282 59.298-54 48.625l-3.742-3.68-3.563-3.547c-1.07-1.06-2.14-2.12-3.241-3.213-9.787-11.14-3.238-22.787 5.726-31.736l3.707-3.709 3.863-3.802 3.84-3.862C-28.16-24.042-17.353-17.336 0 0"
     style="fill:#1867d3"
     transform="translate(537.125 653.75)"
     id="path9" />
  <path
     d="M0 0c.117 2.582.157 5.167.174 7.752l.04 5.13.032 5.614.1 11.635q.071 9.223.13 18.447c.04 5.91.092 11.82.145 17.73l.026 5.56.05 5.216.031 4.569C2.185 104.95 28.763 114.183 34 88c.154-6.471.254-12.941.328-19.414 1.743-11.895 12.597 13.573 13.047 18.602-2.722 34.926-50 41.28-58.375 5.812-1.007-10.07 2.485-17.727 8-26 1.074-5.53 1.107-10.946 1.063-16.566l-.024-4.913-.078-10.085c-.037-7.748.054-15.367.727-23.088C.03 5.808.03 5.808-4 5h3c0-5 0-5 1-5"
     style="fill:#1f5abd"
     transform="translate(397 322)"
     id="path11" />
  <path
     d="M0 0c0 7 0 7-1 7 0-7 0-7 1-7"
     style="fill:#75d2ff"
     transform="translate(81 269)"
     id="path12" />
  <path
     d="M0 0c0 1 0 1-6 1 0-1 0-1 6-1"
     style="fill:#e9ffff"
     transform="translate(717 93)"
     id="path13" />
  <path
     d="M0 0c0 1 0 1-6 1 0-1 0-1 6-1"
     style="fill:#d4ffff"
     transform="translate(701 93)"
     id="path14" />
  <path
     d="M0 0c0 1 0 1-6 1 0-1 0-1 6-1"
     style="fill:#b8f0ff"
     transform="translate(525 93)"
     id="path15" />
  <path
     d="m0 0 4 1Z"
     style="fill:#bfbfff"
     transform="translate(788 947)"
     id="path16" />
  <path
     d="m0 0 1 4Z"
     style="fill:#d4e9ff"
     transform="translate(81 781)"
     id="path17" />
  <path
     d="m0 0 1 4Z"
     style="fill:#81d0ff"
     transform="translate(88 224)"
     id="path18" />
  <path
     d="m0 0-3-1c2-1 2-1 3 1"
     style="fill:#a4d9ff"
     transform="translate(797 98)"
     id="path19" />
  <path
     d="m0 0 4 1Z"
     style="fill:#bfffff"
     transform="translate(529 93)"
     id="path20" />
  <path
     d="m0 0 3 1Z"
     style="fill:#d4d4ff"
     transform="translate(720 951)"
     id="path21" />
  <path
     d="m0 0 3 1Z"
     style="fill:#d4d4ff"
     transform="translate(249 950)"
     id="path22" />
  <path
     d="M0 0h-2c0-2 0-2 2 0"
     style="fill:#d4d4ff"
     transform="translate(98 196)"
     id="path23" />
  <path
     d="m0 0 3 1Z"
     style="fill:#86cdff"
     transform="translate(177 112)"
     id="path24" />
  <path
     d="m0 0 3 1Z"
     style="fill:#9be2ff"
     transform="translate(829 107)"
     id="path25" />
  <path
     d="m0 0 3 1Z"
     style="fill:#a9ffff"
     transform="translate(820 104)"
     id="path26" />
  <path
     d="m0 0-1 2c-1-2-1-2 1-2"
     style="fill:#71e2ff"
     transform="translate(808 99)"
     id="path27" />
  <path
     d="m0 0 3 1Z"
     style="fill:#c6e2ff"
     transform="translate(747 93)"
     id="path28" />
  <path
     d="m0 0 3 1Z"
     style="fill:#fff"
     transform="translate(743 93)"
     id="path29" />
  <path
     d="m0 0 3 1Z"
     style="fill:#fff"
     transform="translate(671 93)"
     id="path30" />
  <path
     d="m0 0 3 1Z"
     style="fill:#fff"
     transform="translate(607 93)"
     id="path31" />
  <path
     d="m0 0 3 1Z"
     style="fill:#63c6ff"
     transform="translate(515 93)"
     id="path32" />
  <path
     d="m0 0 3 1Z"
     style="fill:#fff"
     transform="translate(507 93)"
     id="path33" />
  <path
     d="m0 0 3 1Z"
     style="fill:#d4ffff"
     transform="translate(411 93)"
     id="path34" />
  <path
     d="m0 0 3 1Z"
     style="fill:#c6e2ff"
     transform="translate(387 93)"
     id="path35" />
  <path
     d="m0 0 3 1Z"
     style="fill:#fff"
     transform="translate(261 93)"
     id="path36" />
  <path
     d="m0 0 2 1Z"
     style="fill:#fff"
     transform="translate(752 951)"
     id="path37" />
  <path
     d="m0 0 2 1Z"
     style="fill:#7f7fff"
     transform="translate(744 951)"
     id="path38" />
  <path
     d="m0 0 2 1Z"
     style="fill:#fff"
     transform="translate(664 951)"
     id="path39" />
  <path
     d="m0 0 2 1Z"
     style="fill:#fff"
     transform="translate(632 951)"
     id="path40" />
  <path
     d="m0 0 2 1Z"
     style="fill:#fff"
     transform="translate(624 951)"
     id="path41" />
  <path
     d="m0 0 2 1Z"
     style="fill:#7f7fff"
     transform="translate(544 951)"
     id="path42" />
  <path
     d="m0 0 2 1Z"
     style="fill:#6a94ff"
     transform="translate(536 951)"
     id="path43" />
  <path
     d="m0 0 2 1Z"
     style="fill:#fff"
     transform="translate(520 951)"
     id="path44" />
  <path
     d="m0 0 2 1Z"
     style="fill:#fff"
     transform="translate(480 951)"
     id="path45" />
  <path
     d="m0 0 2 1Z"
     style="fill:#bfbfff"
     transform="translate(456 951)"
     id="path46" />
  <path
     d="m0 0 2 1Z"
     style="fill:#bfbfff"
     transform="translate(416 951)"
     id="path47" />
  <path
     d="m0 0 2 1Z"
     style="fill:#fff"
     transform="translate(408 951)"
     id="path48" />
  <path
     d="m0 0 2 1Z"
     style="fill:#bfbfff"
     transform="translate(400 951)"
     id="path49" />
  <path
     d="m0 0 2 1Z"
     style="fill:#fff"
     transform="translate(384 951)"
     id="path50" />
  <path
     d="m0 0 2 1Z"
     style="fill:#bfbfff"
     transform="translate(376 951)"
     id="path51" />
  <path
     d="m0 0 2 1Z"
     style="fill:#fff"
     transform="translate(328 951)"
     id="path52" />
  <path
     d="m0 0 2 1Z"
     style="fill:#bfbfff"
     transform="translate(280 951)"
     id="path53" />
  <path
     d="m0 0 2 1Z"
     style="fill:#bfbfff"
     transform="translate(272 951)"
     id="path54" />
  <path
     d="m0 0 2 1Z"
     style="fill:#aad4ff"
     transform="translate(760 950)"
     id="path55" />
  <path
     d="m0 0 2 1Z"
     style="fill:#bfbfff"
     transform="translate(776 949)"
     id="path56" />
  <path
     d="m0 0 2 1Z"
     style="fill:#bfbfff"
     transform="translate(234 947)"
     id="path57" />
  <path
     d="m0 0 2 1Z"
     style="fill:#aad4ff"
     transform="translate(216 943)"
     id="path58" />
  <path
     d="m0 0 2 1Z"
     style="fill:#aad4ff"
     transform="translate(208 941)"
     id="path59" />
  <path
     d="m0 0 2 1Z"
     style="fill:#5f7fff"
     transform="translate(192 935)"
     id="path60" />
  <path
     d="m0 0 2 1Z"
     style="fill:#fff"
     transform="translate(91 830)"
     id="path61" />
  <path
     d="m0 0 2 1Z"
     style="fill:#bfbfff"
     transform="translate(149 129)"
     id="path62" />
  <path
     d="m0 0 2 1Z"
     style="fill:#9fdfff"
     transform="translate(198 104)"
     id="path63" />
  <path
     d="m0 0 2 1Z"
     style="fill:#bfffff"
     transform="translate(790 96)"
     id="path64" />
  <path
     d="m0 0 2 1Z"
     style="fill:#59ccff"
     transform="translate(229 96)"
     id="path65" />
  <path
     d="m0 0 2 1Z"
     style="fill:#fff"
     transform="translate(752 93)"
     id="path66" />
  <path
     d="m0 0 2 1Z"
     style="fill:#fff"
     transform="translate(727 93)"
     id="path67" />
  <path
     d="m0 0 2 1Z"
     style="fill:#fff"
     transform="translate(722 93)"
     id="path68" />
  <path
     d="m0 0 2 1Z"
     style="fill:#bfffff"
     transform="translate(691 93)"
     id="path69" />
  <path
     d="m0 0 2 1Z"
     style="fill:#fff"
     transform="translate(659 93)"
     id="path70" />
  <path
     d="m0 0 2 1Z"
     style="fill:#bfffff"
     transform="translate(651 93)"
     id="path71" />
  <path
     d="m0 0 2 1Z"
     style="fill:#fff"
     transform="translate(647 93)"
     id="path72" />
  <path
     d="m0 0 2 1Z"
     style="fill:#fff"
     transform="translate(639 93)"
     id="path73" />
  <path
     d="m0 0 2 1Z"
     style="fill:#fff"
     transform="translate(623 93)"
     id="path74" />
  <path
     d="m0 0 2 1Z"
     style="fill:#bfffff"
     transform="translate(611 93)"
     id="path75" />
  <path
     d="m0 0 2 1Z"
     style="fill:#bfffff"
     transform="translate(603 93)"
     id="path76" />
  <path
     d="m0 0 2 1Z"
     style="fill:#bfffff"
     transform="translate(599 93)"
     id="path77" />
  <path
     d="m0 0 2 1Z"
     style="fill:#bfffff"
     transform="translate(591 93)"
     id="path78" />
  <path
     d="m0 0 2 1Z"
     style="fill:#fff"
     transform="translate(582 93)"
     id="path79" />
  <path
     d="m0 0 2 1Z"
     style="fill:#bfffff"
     transform="translate(563 93)"
     id="path80" />
  <path
     d="m0 0 2 1Z"
     style="fill:#bfffff"
     transform="translate(555 93)"
     id="path81" />
  <path
     d="m0 0 2 1Z"
     style="fill:#aad4ff"
     transform="translate(539 93)"
     id="path82" />
  <path
     d="m0 0 2 1Z"
     style="fill:#bfffff"
     transform="translate(535 93)"
     id="path83" />
  <path
     d="m0 0 2 1Z"
     style="fill:#5af"
     transform="translate(483 93)"
     id="path84" />
  <path
     d="m0 0 2 1Z"
     style="fill:#fff"
     transform="translate(479 93)"
     id="path85" />
  <path
     d="m0 0 2 1Z"
     style="fill:#aad4ff"
     transform="translate(475 93)"
     id="path86" />
  <path
     d="m0 0 2 1Z"
     style="fill:#bfffff"
     transform="translate(471 93)"
     id="path87" />
  <path
     d="m0 0 2 1Z"
     style="fill:#bfffff"
     transform="translate(458 93)"
     id="path88" />
  <path
     d="m0 0 2 1Z"
     style="fill:#bfffff"
     transform="translate(455 93)"
     id="path89" />
  <path
     d="m0 0 2 1Z"
     style="fill:#fff"
     transform="translate(431 93)"
     id="path90" />
  <path
     d="m0 0 2 1Z"
     style="fill:#fff"
     transform="translate(423 93)"
     id="path91" />
  <path
     d="m0 0 2 1Z"
     style="fill:#bfffff"
     transform="translate(419 93)"
     id="path92" />
  <path
     d="m0 0 2 1Z"
     style="fill:#bfffff"
     transform="translate(403 93)"
     id="path93" />
  <path
     d="m0 0 2 1Z"
     style="fill:#fff"
     transform="translate(383 93)"
     id="path94" />
  <path
     d="m0 0 2 1Z"
     style="fill:#7fffff"
     transform="translate(379 93)"
     id="path95" />
  <path
     d="m0 0 2 1Z"
     style="fill:#fff"
     transform="translate(375 93)"
     id="path96" />
  <path
     d="m0 0 2 1Z"
     style="fill:#fff"
     transform="translate(363 93)"
     id="path97" />
  <path
     d="m0 0 2 1Z"
     style="fill:#bfffff"
     transform="translate(359 93)"
     id="path98" />
  <path
     d="m0 0 2 1Z"
     style="fill:#bfffff"
     transform="translate(354 93)"
     id="path99" />
  <path
     d="m0 0 2 1Z"
     style="fill:#fff"
     transform="translate(347 93)"
     id="path100" />
  <path
     d="m0 0 2 1Z"
     style="fill:#bfffff"
     transform="translate(331 93)"
     id="path101" />
  <path
     d="m0 0 2 1Z"
     style="fill:#bfffff"
     transform="translate(307 93)"
     id="path102" />
  <path
     d="m0 0 2 1Z"
     style="fill:#fff"
     transform="translate(267 93)"
     id="path103" />
</svg>
